<?xml version="1.0" standalone="no"?>
<!DOCTYPE svg PUBLIC "-//W3C//DTD SVG 20010904//EN"
 "http://www.w3.org/TR/2001/REC-SVG-20010904/DTD/svg10.dtd">
<svg version="1.0" xmlns="http://www.w3.org/2000/svg"
 width="500.000000pt" height="500.000000pt" viewBox="0 0 500.000000 500.000000"
 preserveAspectRatio="xMidYMid meet">
<metadata>
Created by potrace 1.14, written by Peter Selinger 2001-2017
</metadata>
<g transform="translate(0.000000,500.000000) scale(0.100000,-0.100000)"
fill="#000000" stroke="none">
<path d="M1 3833 c1 -682 5 -1135 10 -1088 21 199 73 436 135 604 52 144 183
401 269 530 42 63 118 165 170 226 440 522 1030 826 1720 888 22 2 -488 4
-1132 5 l-1173 2 1 -1167z"/>
<path d="M2736 4989 c210 -20 487 -87 684 -166 846 -336 1445 -1115 1556
-2023 23 -189 15 -544 -16 -719 -141 -796 -646 -1470 -1365 -1822 -268 -131
-517 -204 -815 -239 -151 -18 -488 -12 -645 10 -770 112 -1442 578 -1825 1266
-149 268 -256 598 -289 894 -6 52 -13 109 -15 125 -1 17 -4 -498 -5 -1142 l-1
-1173 2500 0 2500 0 0 2500 0 2500 -1172 -1 c-645 -1 -1137 -5 -1092 -10z"/>
<path d="M2234 4835 c-811 -93 -1518 -602 -1866 -1343 -226 -480 -278 -1050
-143 -1578 82 -321 239 -632 448 -889 90 -111 294 -308 407 -392 330 -247 669
-390 1075 -453 220 -34 574 -25 805 20 30 6 98 22 150 36 728 198 1316 733
1587 1444 149 394 186 859 102 1285 -191 962 -977 1710 -1954 1860 -142 22
-462 27 -611 10z m612 -205 c470 -38 766 -142 981 -343 202 -192 297 -422 334
-817 39 -414 -92 -855 -404 -1361 -156 -253 -341 -497 -556 -733 -126 -138
-324 -329 -347 -334 -10 -3 -13 40 -14 195 0 109 -5 374 -10 588 -14 576 -16
521 23 534 81 27 117 90 131 231 l11 105 42 3 c34 2 44 -1 53 -17 6 -12 24
-28 40 -36 35 -18 111 -20 128 -3 7 7 12 39 12 73 0 34 -5 66 -12 73 -7 7 -36
12 -66 12 -49 0 -58 -3 -88 -35 -35 -38 -89 -49 -100 -20 -6 13 10 223 22 308
5 34 9 37 37 37 21 0 41 -10 63 -31 25 -24 44 -33 82 -37 66 -6 82 11 82 88 0
77 -16 94 -82 88 -38 -4 -57 -13 -82 -37 -30 -29 -79 -42 -89 -23 -2 4 -1 41
3 82 4 41 11 116 15 165 4 50 9 93 12 98 10 17 47 4 77 -28 30 -32 38 -35 89
-35 45 0 58 4 67 19 13 25 13 92 0 125 -9 24 -15 26 -66 26 -52 0 -59 -3 -90
-36 -20 -20 -41 -34 -52 -32 -20 4 -21 34 -8 243 l9 131 -26 29 c-24 29 -29
30 -129 35 l-103 6 -78 52 c-43 28 -104 64 -135 79 -109 54 -225 32 -367 -69
-85 -60 -107 -68 -197 -68 -154 0 -167 -24 -144 -264 8 -87 13 -163 10 -168
-11 -17 -36 -7 -70 27 -31 31 -40 35 -87 35 -29 0 -58 -5 -65 -12 -7 -7 -12
-39 -12 -74 0 -78 11 -88 87 -82 49 4 61 9 83 36 32 38 67 42 74 10 6 -28 26
-267 26 -308 0 -26 -3 -30 -29 -30 -19 0 -40 10 -59 29 -32 33 -91 49 -130 35
-52 -18 -52 -150 -1 -168 40 -14 98 2 131 35 38 38 98 42 98 7 0 -13 7 -90 15
-173 7 -82 11 -153 9 -157 -3 -5 -21 -8 -39 -8 -25 0 -39 6 -50 24 -22 33 -63
48 -121 44 -47 -3 -49 -4 -58 -40 -6 -22 -6 -54 0 -80 l9 -43 57 -3 c53 -3 60
-1 96 33 30 26 48 35 75 35 41 0 40 1 53 -135 10 -115 40 -167 116 -201 l41
-18 -7 -471 c-8 -596 -16 -835 -28 -835 -21 0 -410 403 -521 540 -404 496
-663 980 -753 1406 -50 240 -43 540 21 797 132 534 538 800 1300 850 123 8
544 6 661 -3z m-598 -863 c6 -7 14 -66 18 -131 l7 -117 -71 2 -71 3 -6 36 c-3
19 -6 65 -8 102 -2 58 1 69 22 92 27 29 90 36 109 13z m609 -13 c25 -25 26
-28 20 -121 -4 -52 -9 -98 -12 -102 -2 -5 -35 -8 -72 -7 -58 1 -68 4 -67 19 0
9 1 59 2 111 2 108 12 126 68 126 24 0 43 -8 61 -26z m-682 -274 c3 5 26 10
50 10 33 0 45 -4 49 -17 2 -10 8 -91 11 -181 l7 -163 -61 4 c-33 2 -63 6 -66
9 -10 9 -36 328 -28 341 3 4 11 3 18 -3 9 -8 15 -8 20 0z m681 -105 c-3 -60
-9 -140 -12 -177 l-7 -68 -63 0 c-34 0 -65 3 -67 8 -5 9 11 323 18 340 3 9 24
12 71 10 l67 -2 -7 -111z m-666 -297 c0 -10 2 -10 8 -1 5 8 25 12 53 10 39 -3
44 -6 44 -28 0 -14 -5 -23 -12 -21 -16 3 -16 2 7 -92 24 -96 27 -201 5 -209
-8 -4 -17 -2 -21 4 -3 6 -10 6 -17 1 -15 -12 -60 -9 -64 4 -6 19 -30 329 -26
337 7 12 23 8 23 -5z m640 -10 c0 -36 -21 -291 -26 -315 -4 -20 -10 -22 -59
-21 l-55 2 0 85 c0 47 7 111 15 141 9 34 11 56 5 58 -6 2 -10 18 -10 37 l0 32
65 2 c61 1 65 0 65 -21z m-610 -378 c0 -6 9 -5 21 2 18 11 23 11 26 0 4 -10 8
-10 20 -1 19 17 33 -4 33 -50 0 -26 -3 -32 -15 -27 -13 5 -15 -2 -9 -44 6 -49
6 -50 -21 -50 -18 0 -28 6 -32 19 -3 11 -11 17 -18 15 -7 -3 -15 5 -19 18 -9
37 -7 128 4 128 6 0 10 -5 10 -10z m575 0 c3 -5 3 -37 -1 -71 -8 -71 -29 -99
-73 -99 -24 0 -29 5 -35 31 -8 42 -8 134 1 142 10 11 101 8 108 -3z m-309
-1231 c-14 -11 -33 -34 -41 -50 l-16 -29 61 0 c124 0 173 -48 168 -162 -3 -58
-8 -71 -32 -97 -37 -39 -85 -55 -148 -49 -92 9 -142 71 -141 172 1 34 8 78 17
98 21 50 72 106 110 123 45 20 52 18 22 -6z m-838 -569 c36 -13 38 -18 18 -45
-13 -18 -15 -18 -45 8 -60 50 -147 47 -165 -6 -13 -37 9 -57 104 -92 100 -38
140 -77 140 -138 0 -80 -57 -118 -177 -117 -53 1 -145 29 -150 46 -2 6 6 23
18 38 l22 27 17 -26 c34 -51 84 -71 143 -54 39 11 57 33 57 71 0 42 -58 87
-152 117 -54 18 -88 54 -88 93 0 43 23 75 63 88 38 11 149 6 195 -10z m402
-14 l0 -33 -47 23 c-87 45 -84 51 -81 -171 l3 -195 -45 0 -45 0 3 195 c3 220
7 213 -75 175 l-43 -19 0 29 0 30 165 0 165 0 0 -34z m287 6 c44 -23 73 -64
73 -102 0 -38 -30 -87 -66 -106 -18 -10 -34 -22 -34 -27 0 -13 51 -99 73 -124
l20 -23 -49 0 -49 1 -34 74 -34 75 -44 0 -43 0 0 -56 c0 -30 5 -64 10 -75 10
-18 7 -19 -37 -19 l-48 0 0 206 0 206 110 -4 c88 -4 119 -9 152 -26z m188
-177 l0 -205 -45 0 -45 0 0 205 0 205 45 0 45 0 0 -205z m145 192 c0 -11 132
-242 146 -257 3 -2 4 57 2 133 l-3 137 25 0 25 0 -3 -205 c-4 -267 -3 -266
-143 -28 l-104 178 -3 -65 c-2 -36 -2 -116 0 -178 l3 -112 -25 0 -25 0 0 205
0 205 53 0 c36 0 52 -4 52 -13z m563 -16 c48 -29 53 -48 18 -66 -28 -14 -29
-14 -39 14 -21 60 -108 82 -171 45 -98 -58 -98 -274 1 -334 46 -28 112 -27
132 2 15 21 23 137 11 150 -10 10 -98 -12 -117 -29 -17 -15 -18 -14 -18 15 l0
32 108 0 107 0 0 -104 0 -103 -86 -6 c-167 -12 -264 49 -285 180 -14 87 47
187 131 219 57 21 163 13 208 -15z m304 19 c71 -16 80 -23 64 -54 l-14 -25
-33 29 c-66 57 -156 48 -162 -16 -4 -37 3 -43 95 -78 87 -33 121 -58 139 -103
37 -88 -32 -153 -162 -153 -53 0 -149 24 -159 40 -3 5 4 23 16 40 l23 30 28
-35 c33 -40 84 -58 129 -45 46 13 59 29 59 67 0 45 -28 72 -115 108 -85 35
-125 69 -125 106 0 44 11 60 54 80 47 21 94 24 163 9z"/>
<path d="M2245 4614 c-400 -30 -603 -73 -809 -173 -121 -58 -178 -98 -269
-188 -212 -210 -310 -504 -311 -928 0 -146 4 -202 22 -300 102 -541 513 -1220
1081 -1785 l166 -165 6 165 c3 91 10 373 14 627 l7 462 -39 19 c-79 41 -111
100 -124 226 -4 50 -9 92 -9 92 0 1 -11 4 -25 7 -18 3 -29 -1 -36 -14 -15 -30
-64 -49 -122 -49 -81 0 -92 13 -92 104 0 58 4 79 17 93 35 35 178 11 195 -33
3 -7 17 -14 30 -14 l26 0 -7 98 c-13 186 -17 212 -36 212 -9 0 -25 -9 -36 -21
-46 -51 -140 -66 -185 -30 -20 16 -23 27 -23 91 0 64 3 75 23 91 45 36 139 21
185 -30 23 -26 46 -27 46 -3 -1 42 -29 285 -35 290 -3 3 -18 -6 -33 -20 -52
-50 -157 -58 -187 -14 -20 28 -20 135 1 164 13 19 24 22 79 22 58 0 68 -3 100
-31 42 -37 41 -48 23 157 -11 132 -10 143 8 180 26 52 53 64 155 64 l86 0 89
56 c141 88 182 106 254 112 83 5 130 -12 272 -101 l106 -67 80 0 c171 0 192
-35 168 -280 -9 -79 -13 -146 -11 -148 2 -3 20 9 40 27 32 28 42 31 99 31 46
0 67 -4 77 -16 18 -22 23 -133 7 -164 -26 -48 -135 -46 -187 4 -15 14 -32 26
-37 26 -10 0 -34 -201 -34 -277 0 -37 23 -45 39 -14 26 48 153 69 191 31 16
-16 20 -33 20 -90 0 -57 -4 -74 -20 -90 -38 -38 -165 -17 -191 31 -10 19 -49
27 -49 11 0 -16 -20 -227 -25 -264 -5 -35 -3 -38 18 -38 13 0 34 11 46 24 23
24 98 50 123 42 7 -2 25 -7 40 -10 22 -5 30 -15 39 -48 13 -50 5 -115 -18
-140 -12 -13 -31 -18 -70 -18 -56 0 -83 9 -118 40 -11 10 -31 20 -45 22 -24 3
-25 1 -35 -97 -16 -142 -51 -201 -140 -235 l-27 -10 6 -93 c3 -50 8 -274 11
-497 6 -459 13 -650 25 -650 15 0 295 284 394 400 325 380 570 762 719 1125
44 107 109 314 121 385 3 19 10 62 16 95 13 79 13 367 0 475 -63 498 -300 799
-742 941 -226 72 -433 99 -813 103 -154 2 -302 2 -330 0z"/>
<path d="M2162 3744 c-19 -13 -22 -24 -22 -89 0 -64 3 -77 22 -95 15 -14 33
-20 53 -18 l30 3 -4 100 c-2 60 -8 103 -15 107 -18 12 -40 9 -64 -8z"/>
<path d="M2765 3750 c-3 -5 -9 -55 -12 -110 l-6 -100 35 0 c56 0 67 16 74 101
6 69 5 78 -15 98 -22 22 -65 28 -76 11z"/>
<path d="M2200 3453 c1 -5 14 -60 30 -123 l28 -115 1 91 c1 125 -5 154 -35
154 -13 0 -24 -3 -24 -7z"/>
<path d="M2171 3434 c0 -11 3 -14 6 -6 3 7 2 16 -1 19 -3 4 -6 -2 -5 -13z"/>
<path d="M2186 3380 c4 -19 11 -44 15 -55 6 -14 7 -9 3 15 -4 19 -11 44 -15
55 -6 14 -7 9 -3 -15z"/>
<path d="M2171 3269 c1 -70 11 -103 31 -107 15 -3 14 5 -4 75 -11 43 -22 80
-24 82 -2 2 -4 -20 -3 -50z"/>
<path d="M2740 3403 c0 -32 -2 -96 -5 -143 l-5 -85 35 135 c19 74 35 138 35
143 0 4 -13 7 -30 7 -30 0 -30 0 -30 -57z"/>
<path d="M2800 3260 c-13 -55 -21 -102 -18 -105 3 -3 12 -3 20 0 12 5 17 30
22 102 4 52 6 97 3 99 -2 2 -14 -41 -27 -96z"/>
<path d="M2202 3040 c0 -14 2 -19 5 -12 2 6 2 18 0 25 -3 6 -5 1 -5 -13z"/>
<path d="M2234 3023 c2 -10 8 -33 11 -51 10 -49 18 -31 10 22 -4 25 -12 46
-17 46 -5 0 -7 -8 -4 -17z"/>
<path d="M2211 2994 c0 -11 3 -14 6 -6 3 7 2 16 -1 19 -3 4 -6 -2 -5 -13z"/>
<path d="M2265 2874 c9 -62 28 -106 20 -49 -2 22 -5 52 -5 68 0 15 -5 27 -11
27 -8 0 -9 -15 -4 -46z"/>
<path d="M2208 2840 c5 -67 8 -78 18 -67 3 3 -1 34 -9 69 l-15 63 6 -65z"/>
<path d="M2756 3062 c-8 -13 -46 -169 -46 -188 0 -39 34 30 52 105 10 42 18
79 18 84 0 9 -17 9 -24 -1z"/>
<path d="M2781 2904 c0 -11 3 -14 6 -6 3 7 2 16 -1 19 -3 4 -6 -2 -5 -13z"/>
<path d="M2713 2810 c0 -25 2 -35 4 -22 2 12 2 32 0 45 -2 12 -4 2 -4 -23z"/>
<path d="M2761 2781 c-10 -17 -9 -21 3 -21 20 0 31 19 18 32 -7 7 -14 3 -21
-11z"/>
<path d="M2282 2650 c0 -14 2 -19 5 -12 2 6 2 18 0 25 -3 6 -5 1 -5 -13z"/>
<path d="M2260 2582 c0 -17 4 -34 10 -37 6 -4 7 6 3 27 -8 44 -13 48 -13 10z"/>
<path d="M2727 2638 c-3 -18 -9 -48 -13 -65 -5 -26 -3 -33 9 -33 18 0 27 29
27 88 0 50 -15 56 -23 10z"/>
<path d="M2440 1345 c-20 -21 -25 -39 -28 -95 -2 -38 -1 -81 2 -95 16 -65 90
-86 143 -41 27 23 28 28 28 114 0 82 -2 93 -24 116 -34 36 -88 36 -121 1z"/>
<path d="M2154 867 c-3 -8 -4 -54 -2 -103 3 -77 5 -89 22 -92 32 -6 100 8 123
26 51 39 46 129 -10 162 -38 23 -125 28 -133 7z"/>
</g>
</svg>
